<?xml version="1.0" standalone="no"?>
<!DOCTYPE svg PUBLIC "-//W3C//DTD SVG 20010904//EN"
 "http://www.w3.org/TR/2001/REC-SVG-20010904/DTD/svg10.dtd">
<svg version="1.0" xmlns="http://www.w3.org/2000/svg"
 width="3508.000000pt" height="4961.000000pt" viewBox="0 0 3508.000000 4961.000000"
 preserveAspectRatio="xMidYMid meet">

<g transform="translate(0.000000,4961.000000) scale(0.100000,-0.100000)"
fill="#000000" stroke="none">
<path d="M11265 35174 c-24 -25 -45 -99 -45 -155 0 -16 -6 -84 -14 -152 -22
-184 -41 -417 -38 -460 3 -48 42 -133 78 -173 29 -31 195 -246 224 -289 8 -12
45 -65 81 -116 36 -52 74 -108 85 -125 24 -39 90 -139 144 -219 89 -131 136
-204 195 -305 35 -58 79 -129 99 -159 20 -29 36 -58 36 -64 0 -6 8 -20 19 -31
18 -21 111 -173 171 -281 18 -33 47 -82 65 -110 17 -27 35 -58 38 -68 7 -18
157 -276 202 -347 12 -19 26 -46 30 -60 9 -28 48 -110 89 -185 27 -50 141
-303 191 -425 15 -36 47 -114 72 -175 81 -199 115 -279 135 -330 55 -134 92
-257 82 -272 -5 -9 -66 -35 -134 -58 -69 -23 -152 -53 -185 -67 -33 -15 -145
-63 -250 -108 -194 -84 -297 -133 -440 -209 -137 -74 -359 -223 -480 -325
-283 -236 -322 -272 -548 -515 -52 -55 -161 -188 -252 -305 -60 -77 -242 -335
-272 -386 -186 -312 -240 -435 -368 -838 -68 -215 -132 -489 -150 -642 -3 -30
-13 -89 -20 -130 -32 -176 -48 -839 -24 -1048 12 -112 71 -415 101 -517 11
-38 26 -95 33 -125 7 -30 25 -86 40 -125 14 -38 37 -101 51 -138 13 -38 56
-128 94 -200 77 -143 78 -145 131 -227 19 -30 50 -81 68 -112 18 -32 47 -75
64 -97 18 -22 48 -61 67 -87 101 -137 333 -374 469 -479 28 -22 75 -58 104
-81 60 -47 191 -134 201 -134 4 0 27 -13 51 -30 24 -16 54 -34 67 -39 14 -5
71 -32 129 -59 274 -133 589 -192 1016 -192 203 0 463 22 606 51 56 12 125 25
152 29 75 12 350 90 435 124 19 8 73 26 119 41 46 15 131 48 190 73 58 24 117
45 131 46 29 1 29 -2 50 -289 13 -174 22 -284 44 -530 12 -133 12 -164 1 -181
-12 -19 -220 -111 -336 -148 -24 -8 -75 -26 -114 -39 -38 -14 -153 -49 -255
-77 -102 -28 -207 -59 -234 -67 -84 -27 -900 -239 -1111 -289 -82 -20 -206
-51 -273 -70 -68 -19 -130 -34 -137 -34 -8 0 -56 -13 -107 -29 -51 -16 -140
-43 -198 -61 -231 -70 -260 -84 -260 -127 0 -79 81 -109 221 -83 30 6 155 15
279 20 124 6 320 15 435 20 116 6 293 12 395 15 102 3 241 7 310 10 69 3 292
10 495 15 402 10 542 19 767 51 176 25 188 22 188 -49 1 -26 5 -148 10 -272 5
-133 5 -229 0 -234 -5 -5 -28 -12 -52 -16 -43 -7 -602 -118 -733 -146 -189
-39 -382 -77 -489 -95 -66 -11 -149 -26 -185 -34 -99 -21 -222 -43 -361 -65
-474 -73 -576 -112 -847 -322 -34 -26 -89 -64 -121 -85 -33 -21 -122 -80 -199
-132 -76 -52 -163 -111 -193 -131 -196 -133 -467 -439 -707 -800 -258 -389
-339 -651 -389 -1255 -32 -385 -6 -628 83 -780 26 -44 55 -95 65 -114 9 -18
23 -41 31 -50 8 -9 22 -32 32 -51 30 -59 127 -202 171 -252 118 -134 341 -271
514 -316 195 -51 215 -53 440 -49 119 2 271 11 340 20 310 41 315 42 455 89
276 93 475 176 720 299 99 50 185 95 190 99 6 4 44 26 85 48 101 53 156 83
215 120 28 17 114 67 193 112 132 76 148 82 197 81 46 0 67 -8 145 -53 50 -29
104 -60 121 -69 16 -10 47 -28 67 -42 89 -60 239 -140 457 -242 218 -103 239
-113 305 -140 36 -15 151 -67 255 -115 168 -78 270 -122 590 -255 164 -68 593
-199 771 -235 22 -5 85 -20 140 -34 54 -14 169 -39 254 -56 85 -17 202 -42
260 -55 156 -35 349 -51 885 -74 178 -8 444 1 592 19 84 10 292 51 433 84 178
41 384 86 465 101 142 26 315 81 428 135 107 52 137 59 155 38 5 -7 24 -55 42
-107 18 -52 48 -129 67 -170 19 -42 47 -108 63 -146 36 -91 66 -139 172 -277
167 -217 321 -353 498 -436 309 -145 523 -172 965 -119 205 25 359 60 510 116
28 11 95 36 150 57 79 30 308 135 395 183 8 4 29 14 45 23 29 14 214 119 245
138 8 5 38 22 65 38 190 108 348 213 574 380 35 26 84 62 110 80 25 19 75 58
111 88 36 30 112 93 170 141 143 117 233 196 310 269 129 124 166 159 230 218
370 341 696 673 775 790 11 16 29 41 40 56 102 140 174 285 255 515 101 288
114 358 113 605 -1 271 -26 505 -70 655 -20 66 -39 134 -43 150 -24 94 -123
335 -183 444 -69 128 -199 318 -301 442 -60 73 -295 309 -308 309 -3 0 -29 19
-57 43 -58 49 -51 46 -231 125 -74 32 -161 65 -192 72 -76 17 -244 8 -318 -18
-75 -27 -210 -104 -295 -167 -146 -111 -355 -355 -441 -515 -18 -33 -38 -68
-45 -76 -27 -33 -117 -254 -134 -329 -23 -101 -23 -319 -2 -421 21 -100 97
-273 151 -347 59 -79 164 -171 258 -225 164 -94 271 -112 578 -98 118 6 316
10 440 10 216 0 229 -1 312 -26 192 -59 320 -151 381 -273 13 -27 32 -64 41
-81 26 -50 3 -90 -119 -219 -27 -27 -106 -112 -178 -188 -153 -163 -297 -295
-472 -432 -71 -55 -163 -129 -205 -165 -43 -36 -101 -83 -130 -105 -29 -22
-76 -60 -105 -85 -60 -52 -191 -155 -280 -220 -34 -25 -88 -65 -120 -90 -88
-68 -100 -77 -277 -195 -258 -172 -283 -186 -538 -315 -440 -223 -698 -323
-965 -374 -44 -8 -107 -20 -140 -27 -33 -6 -166 -14 -296 -16 -192 -4 -251 -2
-320 11 -334 64 -585 212 -779 458 -59 73 -73 104 -60 127 5 11 63 52 127 92
146 89 315 196 328 207 6 4 62 43 125 85 63 43 135 94 160 113 25 19 60 44 78
55 17 12 32 25 32 29 0 5 28 30 63 57 209 159 494 449 672 683 39 50 91 117
116 148 25 32 65 86 90 120 76 109 83 119 124 167 184 215 191 224 232 305 13
25 48 83 78 130 94 143 157 285 301 672 8 24 22 68 29 98 8 30 25 93 39 140
13 47 32 130 41 185 9 55 23 134 30 175 7 41 16 127 19 190 3 63 13 178 21
255 8 77 19 186 25 243 14 146 12 389 -5 592 -16 187 -50 452 -65 510 -5 19
-16 94 -25 165 -8 72 -27 184 -40 250 -53 255 -83 430 -75 438 4 5 36 -20 71
-54 87 -85 235 -214 309 -269 33 -25 73 -54 88 -66 55 -43 189 -130 247 -160
280 -146 384 -188 608 -245 66 -16 137 -37 156 -45 20 -8 106 -26 191 -39 127
-20 197 -25 385 -26 l231 -1 54 27 c73 36 100 62 100 96 0 50 -42 72 -196 103
-277 56 -284 58 -529 161 -92 38 -454 214 -560 272 -91 50 -212 131 -300 201
-38 31 -89 71 -112 89 -81 64 -311 299 -369 377 -107 144 -204 286 -204 299 0
5 -11 23 -25 41 -14 18 -25 37 -25 41 0 5 -24 58 -54 119 -30 61 -68 147 -86
191 -18 44 -45 109 -60 145 -33 75 -99 292 -112 365 -5 28 -16 118 -25 200
-13 129 -14 177 -4 345 7 107 12 262 12 343 -1 137 -3 150 -24 179 -26 35 -66
58 -102 58 -36 0 -82 -50 -96 -103 -6 -23 -22 -73 -36 -112 -33 -94 -147 -510
-167 -610 -36 -180 -41 -267 -40 -630 1 -247 7 -412 18 -525 16 -166 21 -203
56 -450 11 -74 27 -193 35 -265 16 -136 19 -154 62 -400 39 -228 48 -278 77
-430 37 -188 70 -347 113 -545 31 -145 51 -260 91 -525 36 -234 51 -421 52
-617 0 -215 -45 -410 -131 -563 -80 -142 -227 -366 -323 -494 -23 -30 -53 -70
-68 -90 -15 -20 -35 -47 -45 -61 -17 -24 -92 -123 -168 -220 -70 -90 -171
-215 -230 -281 -33 -38 -73 -85 -90 -106 -28 -34 -384 -351 -431 -383 -12 -8
-66 -51 -119 -95 -125 -102 -181 -145 -225 -171 -19 -12 -66 -41 -105 -64
-138 -85 -288 -170 -300 -170 -7 0 -30 -12 -51 -27 -54 -36 -390 -211 -440
-228 -22 -7 -56 -23 -75 -34 -19 -11 -81 -38 -139 -61 -58 -23 -125 -49 -150
-59 -72 -30 -313 -102 -400 -121 -31 -7 -285 -70 -480 -120 -679 -173 -906
-203 -1640 -217 -413 -7 -612 3 -950 52 -58 9 -148 20 -200 26 -126 15 -475
86 -685 140 -149 39 -429 131 -509 168 -44 20 -204 97 -355 172 -152 75 -323
158 -381 185 -58 26 -111 52 -117 57 -21 15 -15 33 15 46 15 7 61 34 102 59
175 110 372 219 540 297 118 55 421 208 551 279 48 25 92 46 99 46 7 0 57 -33
110 -72 176 -132 234 -172 350 -243 63 -39 126 -78 140 -87 14 -9 88 -41 165
-72 142 -56 332 -106 621 -165 328 -67 840 -67 1264 -1 298 46 456 69 595 85
72 9 162 22 200 29 39 8 104 20 145 26 41 7 107 21 145 31 39 11 102 26 141
34 38 8 143 44 232 79 88 35 189 71 224 80 75 19 192 61 305 109 46 19 85 32
87 29 2 -4 12 -68 21 -142 28 -220 56 -290 115 -290 57 0 75 44 90 215 5 61
10 155 10 211 l0 101 35 36 c19 20 70 52 112 72 86 41 81 38 208 109 50 27
108 59 130 70 23 12 54 30 70 42 17 11 57 34 91 52 33 17 101 56 150 86 49 30
117 72 152 93 57 35 143 94 184 128 9 7 29 22 45 32 97 61 141 121 167 229 12
51 74 238 179 534 16 47 33 108 38 135 4 28 15 82 23 120 34 159 30 398 -11
580 -84 381 -292 723 -501 825 -184 90 -394 44 -545 -119 -18 -19 -47 -50 -64
-68 -18 -19 -33 -37 -33 -42 0 -5 -11 -19 -23 -32 -55 -56 -172 -253 -280
-471 -142 -289 -204 -463 -261 -738 -14 -69 -33 -154 -41 -190 -46 -203 -83
-431 -105 -653 -5 -49 -13 -94 -19 -101 -15 -18 -89 -45 -346 -129 -269 -88
-339 -108 -495 -137 -63 -12 -128 -25 -145 -30 -30 -9 -85 -17 -400 -60 -88
-12 -194 -28 -235 -36 -41 -9 -109 -19 -150 -24 -41 -5 -111 -14 -155 -20 -44
-5 -206 -14 -359 -20 -468 -18 -788 13 -1107 106 -225 65 -269 82 -269 100 0
8 12 16 28 20 15 3 54 14 87 24 98 30 305 91 380 112 39 11 115 33 169 49 134
39 154 38 211 -11 72 -62 114 -50 134 40 11 51 41 80 81 80 16 0 60 7 98 15
63 13 223 43 442 81 47 9 130 22 185 29 181 26 311 53 351 73 65 34 99 80 174
237 39 83 106 219 147 303 74 150 76 156 77 230 1 66 -3 83 -25 122 -15 25
-141 160 -280 300 -276 277 -375 369 -459 430 -134 96 -310 210 -366 238 -74
37 -202 78 -269 87 -54 7 -83 19 -68 28 4 3 71 24 148 46 213 61 423 127 500
156 39 14 122 44 185 65 148 50 200 68 225 80 11 5 74 28 140 51 186 65 217
77 260 99 21 11 46 20 53 20 15 0 37 9 429 179 127 56 236 101 241 101 6 0 55
21 109 46 54 25 125 56 158 69 33 13 96 40 140 60 44 20 109 47 145 61 67 25
607 293 664 328 17 11 54 32 81 46 86 45 169 92 195 110 14 10 50 30 80 45
185 93 419 252 514 349 100 104 185 235 253 391 79 178 92 211 121 310 97 318
129 606 98 850 -25 193 -92 451 -188 723 l-43 123 27 24 c15 12 64 35 110 50
46 15 97 33 113 41 17 7 48 20 70 28 22 8 92 33 155 56 169 61 239 86 405 142
240 80 732 237 825 262 94 26 218 63 355 106 50 16 131 40 180 55 50 14 115
34 145 45 30 10 109 35 175 55 66 21 192 61 280 90 88 29 176 56 195 60 19 4
62 18 95 30 33 13 92 32 130 43 134 40 621 193 774 245 138 47 160 57 208 101
29 26 53 53 53 60 0 6 15 34 34 62 18 28 63 102 101 165 60 102 104 172 184
292 17 27 26 57 29 96 4 52 2 60 -19 75 -35 24 -67 20 -201 -28 -68 -24 -170
-59 -228 -76 -58 -18 -148 -46 -200 -62 -144 -45 -248 -75 -445 -129 -252 -68
-352 -97 -680 -194 -44 -13 -116 -34 -160 -46 -44 -12 -138 -39 -210 -61 -148
-44 -252 -62 -310 -53 -197 30 -403 84 -501 130 -16 8 -61 28 -100 45 -38 17
-97 49 -131 71 -35 21 -93 58 -130 81 -115 71 -358 271 -398 326 -11 16 -41
53 -67 83 -73 84 -133 181 -213 344 -108 221 -134 306 -165 555 -12 87 -4 157
19 184 9 10 32 26 51 36 47 23 491 173 610 205 174 47 442 105 489 105 25 1
127 10 226 20 357 39 466 44 615 25 209 -26 357 -60 490 -113 41 -16 133 -53
205 -82 71 -28 134 -55 140 -60 6 -5 47 -22 90 -39 44 -16 101 -39 127 -50 52
-24 86 -21 113 9 14 15 16 34 13 88 -3 60 -9 77 -41 126 -49 74 -99 128 -168
185 -174 142 -523 351 -694 416 -38 14 -101 39 -140 55 -141 57 -402 118 -598
140 -173 20 -423 -6 -742 -76 -119 -26 -350 -119 -452 -181 -51 -32 -102 -63
-113 -69 -11 -6 -33 -21 -50 -35 -17 -13 -49 -37 -72 -54 -68 -50 -271 -256
-319 -324 -80 -115 -97 -144 -193 -336 -87 -173 -132 -289 -165 -428 -18 -77
-14 -279 9 -408 56 -316 95 -441 210 -674 130 -264 301 -481 527 -670 39 -33
74 -66 77 -73 3 -7 -5 -17 -22 -23 -15 -6 -40 -17 -57 -25 -16 -8 -64 -25
-106 -38 -42 -13 -95 -34 -117 -45 -23 -12 -46 -21 -53 -21 -6 0 -25 -7 -42
-15 -18 -8 -84 -32 -147 -54 -197 -67 -451 -157 -537 -190 -93 -37 -124 -65
-165 -156 -15 -33 -51 -114 -81 -180 -30 -66 -58 -131 -62 -145 -4 -14 -27
-68 -52 -120 -69 -145 -83 -186 -83 -244 0 -47 5 -61 43 -112 43 -59 204 -374
273 -534 111 -258 235 -677 234 -790 -1 -61 -12 -77 -105 -151 -90 -71 -173
-124 -290 -184 -44 -23 -130 -69 -192 -103 -61 -34 -114 -62 -117 -62 -3 0
-51 -25 -106 -55 -55 -30 -191 -96 -303 -146 -111 -50 -231 -104 -267 -121
-36 -17 -108 -48 -160 -68 -166 -66 -323 -130 -390 -160 -36 -16 -112 -47
-170 -69 -58 -21 -195 -75 -304 -120 -110 -44 -258 -101 -330 -127 -72 -25
-165 -59 -206 -74 -135 -50 -677 -223 -865 -276 -61 -17 -257 -76 -380 -115
-49 -15 -144 -42 -209 -59 -66 -17 -122 -33 -126 -35 -7 -4 -508 -150 -607
-176 -39 -10 -84 -24 -100 -30 -31 -12 -155 -45 -218 -58 -22 -5 -157 -41
-300 -80 -235 -64 -315 -86 -455 -126 -25 -8 -70 -18 -100 -25 -30 -6 -107
-25 -170 -41 -63 -17 -160 -42 -215 -55 -55 -14 -122 -32 -149 -40 -26 -8 -64
-14 -82 -14 -55 0 -54 -13 -45 472 2 123 8 128 266 211 141 46 676 234 825
291 63 24 142 53 175 64 33 11 102 36 152 56 51 20 116 44 145 52 95 28 430
158 563 219 28 12 104 44 170 70 66 26 138 56 160 68 22 11 85 39 140 63 126
53 292 127 370 164 180 86 520 255 585 291 41 23 100 54 130 70 30 17 78 44
105 61 48 30 100 61 242 142 251 144 370 215 518 311 61 39 137 88 170 109 33
20 83 53 110 73 28 20 133 93 235 161 304 205 422 310 477 422 65 135 131 364
204 710 44 209 50 267 50 435 -1 174 -24 286 -91 436 -101 229 -389 608 -541
712 -62 43 -114 81 -222 162 -58 44 -129 96 -157 115 -27 19 -79 55 -114 80
-35 25 -83 57 -107 73 -24 15 -84 56 -134 91 -49 36 -160 112 -245 170 -85 58
-189 128 -230 157 -41 29 -104 72 -140 97 -36 24 -78 56 -95 71 -16 15 -52 42
-78 60 -27 17 -81 57 -120 89 -40 31 -89 68 -109 82 -126 85 -505 459 -648
638 -36 45 -68 82 -71 82 -3 0 -32 34 -65 77 -32 42 -70 90 -84 107 -34 41
-120 170 -120 180 0 4 -13 26 -28 49 -35 52 -90 175 -131 289 -53 151 -78 185
-130 173 -38 -8 -77 -39 -95 -74 -8 -14 -21 -69 -30 -121 -9 -52 -23 -126 -30
-165 -44 -219 -48 -254 -43 -392 8 -227 58 -349 282 -685 44 -66 91 -137 104
-157 13 -20 44 -58 70 -86 26 -27 76 -84 110 -125 126 -151 535 -548 666 -645
22 -16 74 -57 115 -90 41 -34 116 -90 165 -125 133 -95 245 -177 285 -208 19
-16 55 -42 80 -58 118 -80 197 -134 277 -192 49 -34 99 -70 113 -79 176 -117
262 -177 322 -225 23 -18 65 -49 93 -68 117 -78 324 -243 391 -312 142 -145
279 -334 364 -503 34 -67 41 -88 35 -114 -10 -44 -91 -121 -310 -291 -92 -72
-122 -93 -179 -127 -34 -20 -104 -64 -156 -98 -52 -35 -135 -84 -185 -110 -49
-26 -139 -76 -200 -111 -60 -35 -222 -119 -360 -188 -384 -191 -885 -436 -894
-436 -5 0 -68 -29 -142 -63 -116 -55 -280 -126 -479 -207 -30 -13 -85 -36
-122 -51 -140 -60 -213 -89 -222 -89 -5 0 -39 -13 -75 -29 -36 -16 -97 -41
-136 -56 -38 -15 -113 -44 -165 -65 -96 -38 -194 -75 -330 -124 -41 -15 -91
-34 -110 -43 -19 -9 -78 -31 -130 -49 -170 -59 -264 -94 -295 -109 -16 -8 -70
-28 -120 -46 -49 -17 -103 -37 -120 -45 -16 -8 -75 -29 -130 -48 -55 -19 -125
-44 -155 -56 -30 -12 -111 -41 -180 -65 -69 -23 -146 -51 -172 -61 -45 -17
-49 -17 -64 -2 -10 10 -18 38 -21 70 -2 29 -8 100 -13 158 -14 148 -40 601
-42 750 -2 78 2 132 9 145 6 11 30 34 53 50 23 17 66 50 97 75 31 25 75 61 99
80 24 19 77 62 119 95 471 374 616 575 659 915 8 63 18 253 22 422 7 321 -7
592 -42 766 -18 93 -18 126 2 142 8 8 63 33 121 56 111 46 131 57 284 156 259
169 347 249 396 358 38 86 110 314 134 425 45 212 49 243 49 348 0 86 -6 137
-30 240 -46 197 -118 343 -233 473 -20 21 -93 107 -164 189 -145 169 -199 215
-247 215 -67 0 -100 -51 -130 -200 -10 -47 -21 -103 -26 -125 -51 -233 -66
-456 -36 -534 19 -51 93 -141 148 -181 21 -15 66 -63 101 -106 36 -44 74 -88
86 -98 29 -26 26 -47 -11 -83 -154 -144 -527 -270 -737 -249 -71 8 -174 44
-236 84 -22 14 -58 37 -80 51 -71 46 -136 104 -222 201 -47 52 -98 103 -114
114 -60 38 -108 -5 -134 -120 -40 -180 -89 -514 -90 -609 0 -114 7 -134 83
-219 26 -29 79 -92 117 -140 39 -48 86 -104 105 -124 20 -20 54 -62 76 -92 62
-84 234 -358 251 -399 8 -20 36 -83 62 -141 75 -165 108 -277 145 -502 12 -70
-10 -122 -78 -183 -93 -85 -259 -226 -313 -267 -26 -20 -97 -76 -158 -124
-172 -135 -205 -153 -223 -116 -12 22 -29 137 -37 237 -12 151 -67 631 -100
865 -28 195 -33 232 -45 330 -11 88 -32 224 -81 535 -11 66 -23 147 -28 180
-5 33 -14 83 -20 110 -5 28 -17 100 -26 160 -9 61 -21 130 -26 155 -6 25 -16
81 -24 125 -62 356 -100 568 -120 670 -17 88 -37 200 -60 327 -8 46 -24 133
-35 193 -12 61 -28 146 -36 190 -8 44 -16 87 -19 95 -2 8 -11 65 -20 125 -18
127 -85 465 -114 575 -72 277 -69 252 -41 278 12 11 51 24 93 32 39 7 126 23
192 37 269 53 781 126 1008 143 66 5 126 12 135 14 68 21 812 69 1757 116 790
38 1229 74 1830 150 94 12 243 30 331 41 89 10 204 25 255 33 120 19 254 39
449 66 85 12 254 37 375 57 197 31 292 49 515 98 36 8 91 19 123 24 32 6 91
20 130 32 40 12 119 34 177 49 139 37 319 87 350 99 14 5 66 21 115 36 106 31
174 56 270 100 122 55 139 63 195 85 30 12 64 27 75 34 11 7 45 22 75 33 77
29 385 174 510 240 111 59 282 161 415 248 44 29 96 60 115 70 58 30 269 174
349 239 81 65 557 538 732 727 192 207 339 457 339 574 0 51 -2 56 -32 71 -48
25 -91 7 -174 -73 -69 -67 -97 -92 -398 -350 -280 -240 -362 -301 -731 -538
-27 -18 -81 -53 -120 -78 -185 -120 -474 -281 -586 -325 -40 -17 -105 -44
-144 -62 -38 -17 -117 -49 -175 -71 -58 -22 -125 -48 -150 -58 -40 -17 -232
-79 -575 -186 -66 -21 -145 -44 -175 -51 -30 -7 -98 -24 -150 -37 -52 -13
-126 -30 -165 -36 -38 -7 -108 -21 -155 -31 -193 -44 -689 -143 -927 -186
-131 -23 -200 -32 -391 -49 -96 -8 -177 -17 -182 -20 -5 -3 -80 -12 -167 -20
-529 -52 -638 -62 -1083 -99 -297 -25 -550 -38 -1110 -56 -168 -6 -386 -14
-485 -20 -99 -5 -324 -16 -500 -25 -408 -20 -816 -52 -1155 -90 -69 -8 -154
-17 -190 -20 -74 -7 -258 -31 -340 -45 -371 -64 -665 -124 -780 -160 -36 -11
-75 -20 -87 -20 -31 0 -59 41 -88 129 -55 169 -135 377 -169 441 -7 14 -19 43
-26 65 -7 22 -16 45 -20 50 -4 6 -11 24 -14 41 -4 17 -21 64 -38 105 -16 41
-43 108 -58 149 -34 93 -144 364 -199 488 -23 51 -41 97 -41 103 0 15 -212
452 -230 474 -8 10 -34 57 -103 185 -75 142 -288 507 -367 630 -5 8 -22 35
-37 60 -15 25 -56 88 -92 140 -229 339 -271 401 -271 406 0 3 -23 33 -50 67
-89 110 -106 131 -125 162 -28 44 -157 214 -265 348 -52 66 -122 153 -155 195
-94 121 -129 152 -170 152 -26 0 -43 -7 -60 -26z m2198 -5331 c8 -10 25 -52
37 -93 33 -118 109 -418 126 -495 9 -38 25 -110 35 -160 118 -531 240 -1194
309 -1665 12 -82 77 -461 85 -490 3 -14 10 -56 14 -95 10 -81 76 -502 97 -620
8 -44 19 -123 24 -175 6 -52 19 -153 29 -225 42 -284 61 -428 81 -610 11 -104
27 -248 36 -320 9 -71 14 -164 12 -205 l-3 -75 -45 -22 c-25 -11 -106 -40
-180 -63 -74 -23 -160 -50 -190 -60 -263 -89 -567 -138 -908 -147 -318 -7
-530 11 -790 67 -283 62 -673 288 -940 544 -52 50 -100 94 -107 98 -14 9 -182
216 -232 287 -84 121 -180 294 -237 429 -113 269 -164 604 -153 1007 6 203 18
289 66 467 26 96 80 259 90 273 4 5 18 39 31 75 28 80 152 336 217 447 26 46
73 127 103 180 180 317 360 520 679 763 40 30 100 78 134 105 34 28 89 68 122
89 33 22 69 45 80 53 74 51 186 123 190 123 3 0 43 22 88 49 45 27 152 82 237
121 85 39 196 91 247 116 50 24 95 44 100 44 7 0 43 15 265 112 65 28 217 87
229 88 3 0 13 -8 22 -17z m3957 -8652 c0 -5 -17 -24 -37 -41 -95 -83 -318
-306 -356 -358 -85 -115 -106 -154 -181 -352 -40 -102 -62 -252 -52 -348 10
-94 42 -158 115 -227 33 -33 61 -64 61 -70 0 -6 -15 -16 -32 -22 -18 -6 -125
-40 -238 -76 -113 -35 -245 -82 -295 -102 -49 -21 -144 -59 -210 -84 -66 -26
-146 -61 -178 -78 -84 -46 -143 -66 -169 -60 -13 4 -39 27 -58 53 -19 25 -46
61 -60 79 -14 17 -58 79 -99 136 -40 57 -82 115 -92 129 -16 21 -112 212 -164
325 -53 116 -145 438 -145 506 l0 47 123 5 c83 3 157 13 232 31 61 15 137 33
170 41 156 35 429 109 615 165 299 90 312 94 470 140 143 42 334 99 480 145
83 27 100 29 100 16z m-2887 -498 c111 -9 116 -14 128 -143 5 -58 12 -112 14
-120 2 -8 9 -67 16 -130 7 -79 20 -141 41 -200 16 -47 42 -132 57 -190 41
-155 73 -252 164 -495 61 -162 97 -247 111 -265 7 -8 27 -41 44 -72 29 -51 30
-58 16 -72 -8 -9 -19 -16 -24 -16 -22 0 -389 -180 -420 -205 -8 -7 -55 -33
-105 -58 -78 -39 -173 -91 -330 -183 -40 -24 -92 -51 -220 -118 -38 -20 -110
-61 -160 -92 -49 -30 -103 -61 -120 -68 -16 -8 -61 -32 -100 -54 -38 -21 -99
-55 -135 -74 -151 -82 -186 -101 -195 -108 -8 -6 -168 -82 -430 -205 -65 -30
-275 -109 -404 -151 -136 -44 -316 -83 -506 -109 -55 -8 -123 -19 -150 -25
-82 -20 -365 -17 -465 4 -219 46 -264 62 -404 144 -55 32 -103 72 -161 135
-152 163 -202 307 -176 513 6 52 21 118 32 147 12 28 34 86 49 127 63 169 201
451 262 536 120 167 175 234 292 353 194 199 524 504 582 540 16 10 38 28 49
41 11 12 74 63 140 112 66 49 127 95 135 101 8 7 62 43 120 81 58 38 139 95
180 126 118 89 167 119 218 134 46 14 364 32 1027 57 143 5 280 11 305 13 59
5 423 -2 523 -11z m6863 -132 c27 -19 63 -52 79 -74 51 -68 133 -200 151 -242
10 -22 37 -85 62 -139 49 -110 76 -190 86 -253 6 -41 4 -45 -35 -83 -48 -46
-215 -143 -474 -275 -533 -272 -549 -279 -563 -262 -14 19 5 322 27 432 38
187 50 230 104 395 102 309 189 446 322 512 51 25 69 29 126 26 56 -3 74 -9
115 -37z m-3821 -187 c69 -12 222 -91 322 -166 159 -118 206 -178 139 -178
-14 0 -78 -13 -143 -29 -213 -52 -307 -71 -342 -71 -29 0 -43 9 -88 58 -29 31
-53 60 -53 64 0 4 -29 40 -63 80 -74 85 -87 106 -87 146 0 49 64 88 163 102
61 8 75 7 152 -6z m7091 -151 c194 -101 258 -138 334 -195 47 -35 85 -70 85
-78 0 -22 -57 -28 -325 -36 l-235 -7 -85 27 c-75 25 -188 71 -230 95 -63 35
50 166 188 218 24 8 68 12 123 10 74 -3 96 -8 145 -34z"/>
<path d="M12823 28591 c-54 -25 -127 -100 -159 -162 -13 -27 -39 -95 -58 -151
-80 -240 -118 -513 -133 -937 -7 -205 -10 -209 -59 -77 -29 79 -121 257 -167
326 -129 191 -320 358 -522 457 -128 62 -173 73 -210 49 -38 -25 -53 -63 -96
-249 -77 -335 -80 -355 -41 -376 10 -6 62 -19 114 -29 112 -23 245 -84 312
-143 37 -33 52 -40 78 -37 27 2 36 10 51 41 11 23 24 37 36 37 30 0 118 -119
213 -290 58 -104 198 -427 214 -493 4 -17 17 -33 31 -40 34 -15 51 6 97 125
86 223 105 375 106 836 0 243 3 288 25 415 34 199 49 243 88 267 44 27 75 25
146 -12 58 -30 115 -82 232 -216 25 -29 50 -52 56 -52 32 0 56 41 89 155 51
173 53 210 18 271 -76 131 -158 211 -272 268 -73 37 -135 42 -189 17z"/>
<path d="M12508 26303 c-53 -59 -99 -145 -289 -542 -108 -224 -106 -245 18
-335 43 -31 97 -71 120 -89 23 -17 77 -59 120 -92 42 -33 91 -69 108 -80 16
-11 41 -30 55 -43 14 -12 70 -58 125 -102 115 -92 148 -101 204 -54 48 40 134
178 208 334 15 30 49 96 76 145 90 161 107 199 107 239 0 50 -27 92 -91 141
-29 22 -68 54 -88 71 -20 16 -70 54 -111 84 -41 29 -100 75 -131 102 -31 26
-117 93 -190 148 -118 89 -138 100 -174 100 -32 0 -47 -6 -67 -27z"/>
<path d="M13491 20298 c-96 -17 -178 -91 -235 -213 -63 -134 -72 -165 -132
-455 -15 -76 -37 -221 -54 -360 -9 -82 -17 -110 -31 -110 -10 0 -11 2 -65 150
-52 146 -76 192 -155 296 -139 183 -289 284 -445 300 -92 10 -170 -24 -206
-89 -16 -30 -68 -387 -68 -469 0 -42 25 -74 62 -82 13 -3 77 -15 142 -28 163
-31 165 -37 62 -134 -44 -41 -97 -85 -117 -97 -20 -12 -78 -53 -128 -92 -153
-118 -353 -255 -372 -255 -4 0 -20 -11 -36 -24 -46 -39 -245 -170 -303 -200
-30 -15 -62 -34 -70 -41 -26 -21 -201 -121 -290 -165 -47 -23 -95 -52 -107
-63 -31 -28 -30 -64 1 -79 33 -14 92 1 224 58 101 44 233 84 276 84 24 0 340
154 399 194 22 15 65 40 97 56 32 16 82 47 112 67 29 21 75 54 102 73 92 65
231 191 289 263 56 68 167 274 167 310 0 23 29 48 45 40 20 -12 67 -80 113
-164 45 -82 123 -323 142 -439 18 -107 44 -136 83 -92 24 27 73 184 106 343
16 79 39 182 50 229 11 47 31 151 45 230 27 156 40 223 61 310 7 30 16 71 19
90 19 111 126 169 231 126 40 -17 137 -111 160 -155 19 -39 54 -71 75 -71 9 0
26 10 37 23 31 33 91 204 99 280 6 57 4 70 -16 102 -32 51 -95 124 -163 185
-66 61 -131 82 -206 68z"/>
<path d="M17295 33993 c-30 -12 -66 -16 -142 -14 -103 3 -127 -6 -83 -29 36
-19 11 -30 -70 -30 -85 0 -104 9 -65 30 27 14 33 36 13 42 -26 9 -1164 -4
-1180 -13 -10 -5 -21 -21 -24 -34 -8 -33 -39 -32 -72 3 -27 27 -28 27 -162 27
-106 0 -148 -4 -193 -19 l-59 -19 -44 21 c-60 30 -200 32 -234 4 l-23 -18 28
-22 c16 -12 25 -26 21 -30 -11 -10 -167 -11 -325 -1 -103 6 -152 5 -218 -7
-47 -8 -142 -15 -211 -15 -70 -1 -179 -2 -242 -3 -63 0 -149 0 -190 2 -41 1
-129 0 -195 -3 -66 -4 -246 -9 -399 -11 -307 -5 -327 -9 -360 -65 -25 -42 -11
-52 66 -49 35 2 122 1 193 -1 72 -2 191 -2 265 1 168 6 502 6 635 1 55 -2 249
-1 430 2 199 4 371 3 432 -4 82 -8 115 -7 165 5 95 22 214 23 267 2 37 -14 55
-15 115 -7 94 13 602 7 639 -8 16 -6 51 -11 79 -11 28 0 68 -5 89 -12 34 -10
42 -9 58 6 13 12 27 15 41 11 19 -6 20 -9 7 -23 -8 -10 -17 -26 -19 -37 -2
-12 -15 -22 -38 -28 -19 -4 -45 -11 -56 -13 -13 -4 -52 8 -97 29 -134 62 -276
58 -293 -8 -14 -57 66 -87 124 -47 46 32 59 32 88 5 26 -24 31 -25 103 -19 42
4 108 8 146 9 62 2 70 4 71 22 1 11 2 25 3 31 1 6 12 16 26 22 14 6 24 17 23
24 -2 7 3 13 11 13 17 0 24 -35 9 -52 -14 -18 5 -39 45 -52 31 -9 369 -26 477
-24 31 0 108 17 176 37 66 20 125 36 130 36 5 0 21 -9 36 -21 25 -20 38 -21
324 -23 303 -2 389 6 436 36 34 22 163 32 191 14 38 -24 99 -29 145 -11 49 20
123 20 727 4 28 -1 145 1 260 5 194 5 216 8 284 32 72 26 75 27 118 11 24 -9
50 -14 57 -11 8 3 38 -2 67 -10 66 -20 112 -20 149 -1 36 19 148 12 227 -12
45 -14 59 -15 107 -3 42 10 65 10 98 2 75 -19 220 -22 290 -6 35 8 79 12 100
9 20 -4 79 -1 130 5 77 9 100 9 133 -3 32 -11 69 -13 180 -7 77 4 164 13 193
20 44 10 61 9 100 -3 53 -17 200 -16 291 2 29 6 130 11 223 11 161 0 172 -1
211 -24 41 -24 46 -24 247 -22 134 2 216 7 237 15 21 8 52 11 85 7 125 -16
207 -17 249 -5 40 12 157 20 249 18 78 -2 110 0 235 9 86 6 142 15 163 26 18
9 32 19 32 22 0 9 -69 34 -95 34 -32 0 -24 15 18 35 18 8 39 19 47 24 8 5 40
15 70 21 47 10 64 9 115 -5 75 -21 209 -26 253 -9 36 15 42 42 15 66 -33 28
-61 31 -99 9 -42 -25 -92 -28 -101 -5 -11 30 -51 35 -132 19 -62 -13 -80 -21
-99 -45 -22 -29 -23 -29 -64 -14 -23 8 -47 19 -55 25 -9 8 -35 10 -76 5 -41
-4 -80 -1 -116 9 -40 10 -85 12 -173 8 -113 -6 -120 -5 -150 17 -30 22 -34 23
-77 9 -47 -14 -209 -16 -396 -4 -49 3 -196 6 -325 8 -207 2 -240 0 -278 -16
-34 -15 -72 -18 -203 -19 l-161 -1 -25 31 c-29 37 -49 39 -118 13 -27 -10 -67
-19 -87 -19 -21 0 -65 -3 -99 -7 -53 -6 -63 -5 -82 13 -24 23 -111 31 -179 17
-27 -5 -43 -4 -54 6 -19 16 -145 15 -186 -2 -30 -12 -95 -9 -239 11 -86 12
-99 12 -121 -2 -21 -14 -27 -14 -49 -2 -35 19 -67 17 -106 -7 -33 -21 -37 -21
-68 -6 -21 10 -47 14 -75 10 -23 -3 -80 0 -126 7 -83 13 -85 13 -116 -10 -30
-22 -32 -22 -83 -6 -28 9 -61 16 -73 16 -12 0 -45 6 -74 14 -39 10 -82 11
-168 6 -67 -4 -148 -3 -194 2 -60 8 -97 7 -150 -3 -44 -8 -124 -12 -206 -10
-74 2 -166 4 -205 5 l-70 1 0 -30 c0 -26 -4 -30 -32 -33 -25 -2 -35 2 -48 22
-33 50 -145 72 -206 41 -24 -13 -28 -19 -19 -35 5 -10 10 -21 10 -24 0 -12
-47 -5 -68 10 -33 23 -182 38 -462 47 -41 2 -97 -1 -124 -6 -31 -5 -65 -4 -97
3 -58 14 -87 6 -99 -26 -12 -31 -29 -31 -23 -1 4 19 -2 26 -35 41 -35 16 -46
16 -94 6 -41 -9 -67 -10 -107 -1 -65 14 -67 14 -116 -6z m2160 -62 c6 -11 -61
-35 -75 -26 -19 12 -10 24 23 28 17 2 35 5 39 5 4 1 9 -2 13 -7z m220 -11
c-28 -12 -55 -12 -55 0 0 6 17 10 38 9 30 0 33 -2 17 -9z m650 -120 c-3 -5
-21 -10 -40 -10 -19 0 -37 5 -40 10 -4 6 12 10 40 10 28 0 44 -4 40 -10z m231
-11 c8 -14 -14 -35 -46 -42 -30 -7 -43 0 -59 31 -11 22 -11 22 43 22 30 0 58
-5 62 -11z m272 -6 c2 -9 -8 -13 -32 -13 -34 0 -44 8 -29 24 11 11 56 2 61
-11z m285 2 c-3 -21 -31 -29 -59 -16 -22 10 -25 14 -13 22 18 12 75 7 72 -6z
m1267 -15 c-20 -13 -47 -13 -55 0 -4 6 9 10 32 10 28 0 34 -3 23 -10z m-4441
-25 c41 -9 78 -18 83 -21 15 -9 9 -40 -12 -59 -17 -15 -25 -16 -64 -6 -25 6
-59 11 -76 11 -17 0 -51 11 -74 25 -37 22 -48 24 -72 15 -16 -6 -38 -20 -49
-30 -26 -24 -94 -29 -230 -18 -118 10 -155 20 -155 41 0 22 140 30 223 13 59
-13 74 -13 115 0 26 8 57 20 69 27 33 18 157 19 242 2z m-957 -13 c8 -8 4 -14
-15 -23 -21 -10 -35 -9 -67 1 -40 13 -47 20 -32 34 10 11 101 1 114 -12z
m-139 -9 c-7 -2 -21 -2 -30 0 -10 3 -4 5 12 5 17 0 24 -2 18 -5z m-313 -23 c0
-5 -9 -10 -21 -10 -11 0 -17 5 -14 10 3 6 13 10 21 10 8 0 14 -4 14 -10z"/>
<path d="M24349 33881 l-24 -20 21 -21 c20 -20 22 -20 79 -6 32 9 60 18 63 20
10 11 -10 24 -45 30 -21 4 -45 9 -54 12 -9 2 -27 -4 -40 -15z"/>
<path d="M19681 33570 c-100 -46 -196 -128 -255 -220 -70 -108 -73 -113 -86
-185 -7 -38 -19 -87 -26 -107 -20 -59 -29 -227 -14 -274 29 -91 66 -115 415
-271 151 -68 160 -80 103 -142 -19 -20 -47 -52 -62 -71 -15 -19 -145 -156
-289 -303 -260 -267 -321 -343 -310 -386 13 -50 49 -51 123 -3 213 137 289
192 391 281 142 126 232 243 285 373 33 82 67 121 96 112 30 -9 132 -70 166
-99 16 -14 41 -49 55 -78 37 -78 74 -119 105 -115 32 4 41 26 78 206 25 124
26 135 12 171 -43 108 -156 236 -261 295 -37 20 -71 44 -76 53 -5 9 -6 87 -3
179 6 190 -4 257 -53 359 -62 129 -209 245 -310 245 -22 0 -60 -9 -84 -20z
m74 -434 c61 -28 129 -101 161 -174 13 -29 24 -57 24 -63 0 -19 -29 -20 -72
-1 -23 11 -92 41 -153 67 -123 53 -178 89 -173 113 5 25 98 82 133 82 16 0 53
-11 80 -24z"/>
<path d="M11276 33078 c-8 -13 -18 -42 -22 -66 -5 -34 -3 -47 11 -62 18 -20
18 -24 1 -94 -31 -134 -40 -340 -16 -393 12 -28 12 -34 -2 -50 -9 -10 -18 -43
-21 -78 -3 -33 -10 -96 -16 -140 -6 -44 -9 -116 -5 -160 5 -63 2 -90 -10 -119
-17 -41 -22 -146 -7 -174 4 -9 5 -50 0 -91 -6 -59 -5 -78 8 -97 10 -16 13 -33
8 -51 -4 -16 -11 -59 -15 -98 -5 -38 -12 -84 -16 -102 -4 -20 0 -48 11 -76 15
-40 15 -47 2 -74 -13 -24 -14 -51 -6 -173 5 -80 11 -181 14 -225 7 -120 10
-125 48 -123 l32 3 7 -70 c3 -38 11 -128 16 -200 15 -195 23 -248 40 -267 20
-24 68 -23 81 0 6 11 8 127 5 298 -7 401 -5 450 16 529 29 110 27 107 61 89
36 -18 37 -43 4 -78 -28 -31 -31 -44 -12 -70 9 -12 23 -17 42 -14 41 4 56 38
45 103 -6 31 -5 79 2 126 10 73 10 77 -12 107 -23 31 -23 34 -11 107 13 82 9
108 -22 142 -18 21 -20 37 -22 212 -1 104 -5 194 -9 200 -15 24 -14 155 1 185
13 25 14 43 5 115 -6 47 -11 104 -11 126 0 60 -7 155 -16 198 -6 32 -4 44 15
69 21 28 22 38 17 122 -5 90 -33 221 -56 264 -13 25 -43 29 -61 7 -12 -15 -25
-12 -63 17 -17 13 -18 18 -7 55 23 76 -17 128 -54 71z m219 -1731 c2 -69 1
-79 -17 -88 -25 -14 -41 5 -33 39 3 12 -2 37 -11 54 -16 31 -16 32 11 55 15
13 32 22 37 21 6 -2 11 -39 13 -81z"/>
<path d="M24794 32816 c-18 -14 -19 -29 -19 -358 0 -312 -2 -346 -18 -376 -13
-25 -24 -32 -40 -30 -22 3 -23 7 -10 69 10 49 -53 64 -78 18 -7 -14 -7 -30 1
-53 6 -21 7 -42 2 -57 -5 -13 -12 -47 -16 -75 -6 -47 -4 -55 20 -83 22 -27 25
-35 16 -59 -26 -66 -25 -90 4 -119 l28 -28 2 -157 c2 -87 6 -163 10 -169 14
-23 12 -161 -2 -196 -11 -25 -12 -43 -5 -71 5 -20 10 -69 10 -108 -1 -38 5
-98 11 -131 11 -57 11 -64 -9 -96 -26 -43 -26 -64 3 -211 27 -139 46 -166 82
-121 l20 26 37 -33 c32 -30 35 -37 30 -74 -4 -29 -1 -43 11 -53 14 -12 19 -11
36 4 25 23 36 80 19 101 -13 16 -5 96 26 244 14 67 9 136 -13 176 -9 16 -8 26
4 43 9 12 17 41 18 64 2 23 8 74 14 112 6 39 11 111 11 162 1 50 6 104 11 119
6 16 8 56 5 93 -3 36 -7 131 -9 211 -2 114 0 150 12 167 9 16 12 34 7 55 -7
36 -7 46 1 191 4 72 1 111 -10 151 -9 30 -16 78 -16 108 0 66 -6 76 -50 80
l-34 3 -1 55 c-1 30 -4 78 -8 105 -4 28 -12 101 -18 164 -9 87 -16 118 -31
133 -22 22 -38 23 -64 4z m-24 -886 c4 -28 0 -41 -10 -35 -5 3 -10 20 -10 38
0 31 16 28 20 -3z m-17 -117 c3 -5 8 -28 12 -53 6 -42 5 -46 -23 -62 -17 -10
-32 -18 -34 -18 -1 0 -3 32 -3 70 0 65 1 70 22 70 12 0 24 -3 26 -7z"/>
<path d="M20711 30211 c-18 -18 -41 -98 -41 -146 0 -13 -5 -36 -11 -52 -19
-51 -15 -202 8 -263 33 -86 120 -227 223 -362 54 -70 -17 -100 -138 -58 -68
24 -94 52 -156 171 -35 67 -132 344 -169 484 -14 49 -40 111 -54 128 -21 23
-56 22 -78 -3 -17 -19 -20 -36 -41 -240 -9 -93 16 -214 81 -383 78 -202 73
-247 -32 -310 -68 -41 -97 -51 -137 -48 -42 2 -52 11 -90 74 -54 90 -64 139
-71 367 -4 129 -12 230 -22 273 -18 77 -79 181 -114 192 -38 12 -72 -37 -97
-141 -43 -178 -41 -241 8 -315 41 -63 51 -117 60 -334 9 -210 23 -282 73 -378
45 -85 102 -140 161 -157 43 -12 57 -11 115 4 83 22 191 92 234 152 18 24 41
68 52 97 12 30 28 53 38 55 9 2 42 -17 73 -43 77 -62 100 -73 175 -81 77 -7
162 12 220 50 49 33 88 108 124 241 41 151 47 192 43 286 -5 107 -38 180 -162
359 -82 118 -164 271 -180 333 -8 32 -39 67 -61 67 -8 0 -24 -9 -34 -19z"/>
<path d="M15092 30123 c-28 -11 -43 -71 -67 -260 -14 -109 -32 -243 -40 -298
-25 -175 -37 -315 -42 -520 -8 -294 18 -401 129 -520 164 -177 346 -161 407
35 42 133 53 498 18 582 -18 42 -30 52 -58 43 -33 -11 -48 -65 -55 -192 -4
-65 -11 -126 -16 -135 -15 -31 -85 -23 -145 15 -90 57 -151 152 -155 243 -2
49 20 290 47 499 32 249 49 476 39 493 -11 18 -40 25 -62 15z"/>
<path d="M18156 30078 c-22 -31 -20 -138 3 -263 10 -55 22 -108 26 -117 7 -17
86 -68 228 -147 105 -60 304 -236 387 -345 62 -81 184 -280 194 -316 4 -14 15
-45 25 -70 36 -88 54 -217 58 -415 3 -104 9 -207 14 -227 19 -73 72 -68 89 7
13 54 12 579 0 690 -11 94 -51 258 -74 304 -7 14 -21 51 -31 81 -24 77 -130
254 -227 380 -77 100 -275 281 -341 311 -12 5 -47 25 -77 43 -172 106 -244
128 -274 84z"/>
<path d="M20682 28599 c-69 -35 -104 -83 -249 -344 -28 -49 -75 -135 -106
-190 -67 -120 -77 -145 -77 -193 1 -49 19 -79 63 -105 101 -61 207 -131 252
-166 28 -22 88 -66 135 -98 47 -32 113 -79 148 -105 35 -27 65 -48 67 -48 2 0
39 -26 82 -58 96 -73 163 -112 190 -112 41 0 86 46 149 150 35 58 64 109 64
113 0 4 17 34 37 65 38 59 104 174 131 227 8 17 28 51 43 76 30 48 46 120 35
162 -3 15 -28 40 -58 61 -29 20 -78 56 -109 79 -31 23 -98 71 -148 107 -50 36
-113 81 -140 100 -26 19 -83 60 -125 90 -43 30 -99 71 -124 91 -59 46 -160
106 -193 114 -15 3 -40 -3 -67 -16z"/>
<path d="M17346 27938 c-15 -36 -41 -172 -55 -289 -5 -41 -15 -119 -21 -174
-7 -55 -23 -188 -37 -295 -47 -368 -53 -477 -32 -626 11 -78 54 -190 87 -227
45 -52 114 -96 166 -107 75 -15 119 4 186 81 62 71 88 141 130 349 42 205 38
340 -9 355 -46 14 -65 -15 -87 -132 -32 -171 -52 -215 -100 -227 -27 -7 -95
20 -129 51 -110 98 -128 221 -76 526 72 421 84 509 79 597 -6 102 -26 150 -63
150 -19 0 -29 -8 -39 -32z"/>
<path d="M18169 26315 c-40 -21 -72 -70 -144 -216 -162 -329 -241 -474 -257
-477 -9 -2 -45 15 -80 36 -35 22 -130 77 -213 122 -82 45 -157 88 -165 94 -17
14 -79 50 -166 96 -32 18 -70 38 -84 46 -52 29 -128 9 -165 -43 -8 -11 -68
-127 -133 -259 -108 -215 -131 -269 -171 -395 -15 -47 -14 -101 2 -121 15 -18
77 -65 116 -87 16 -9 55 -31 88 -49 32 -18 88 -50 125 -70 90 -50 249 -143
328 -192 94 -57 165 -90 196 -90 57 0 85 38 194 257 56 114 109 222 117 238 7
17 18 37 23 45 5 8 19 41 30 72 25 68 55 108 81 108 25 0 76 -32 219 -139 63
-47 134 -98 157 -113 24 -15 72 -50 108 -78 35 -27 69 -50 74 -50 5 0 16 -8
23 -17 36 -48 188 -143 229 -143 41 0 86 50 140 155 28 55 55 105 59 110 4 6
47 89 94 185 48 96 98 196 112 221 48 93 28 146 -87 232 -178 133 -252 187
-258 187 -4 0 -36 23 -71 50 -36 28 -76 58 -90 67 -14 10 -52 38 -85 63 -33
25 -102 74 -153 108 -100 66 -140 76 -193 47z"/>
<path d="M24777 26013 c-3 -32 -4 -121 -2 -198 2 -123 3 -232 6 -560 0 -51 -6
-93 -15 -117 -9 -21 -16 -53 -16 -73 0 -43 -11 -44 -44 -4 -26 30 -24 56 4 74
29 18 -11 80 -47 73 -32 -6 -45 -51 -34 -113 6 -31 7 -65 2 -78 -4 -12 -11
-50 -15 -85 -6 -56 -4 -68 18 -105 17 -30 22 -47 15 -59 -5 -9 -8 -31 -7 -50
1 -18 -2 -49 -6 -70 -7 -30 -4 -40 14 -58 12 -12 26 -20 33 -17 16 5 45 48 53
79 5 23 2 29 -20 38 -15 5 -26 17 -26 28 0 23 30 52 54 52 14 0 17 -7 15 -37
-2 -24 4 -48 16 -66 24 -37 8 -75 -35 -84 -17 -3 -35 -14 -41 -25 -13 -25 -18
-324 -7 -403 15 -100 17 -176 5 -260 -6 -44 -10 -91 -9 -105 1 -14 4 -68 7
-120 9 -159 13 -213 20 -257 6 -33 2 -52 -15 -87 -22 -43 -22 -49 -12 -153 27
-256 59 -340 104 -271 l15 22 41 -35 c32 -26 40 -38 34 -54 -9 -27 -4 -107 8
-119 14 -14 31 5 52 61 23 62 23 70 -7 97 l-24 22 20 65 c42 133 55 369 25
438 -19 41 -19 42 3 71 16 23 21 42 20 82 -1 29 3 103 9 163 7 61 12 157 11
215 0 73 5 114 15 135 13 27 13 40 -1 119 -11 68 -12 98 -4 132 15 59 14 90
-5 119 -13 19 -13 30 -4 67 7 25 10 68 6 103 -5 47 -2 66 10 83 18 26 15 77
-7 129 -12 29 -11 37 3 61 15 24 17 51 14 169 -2 83 -8 149 -16 162 -6 13 -10
46 -9 74 7 133 -9 185 -51 172 -26 -8 -31 6 -35 98 -3 77 -15 226 -33 411 -8
85 -23 106 -73 106 -25 0 -27 -3 -32 -57z m3 -1119 c0 -7 -4 -15 -9 -19 -14
-8 -34 33 -26 53 6 15 8 15 21 -2 8 -11 14 -25 14 -32z"/>
<path d="M16882 24689 c-13 -5 -47 -24 -75 -42 -29 -19 -83 -52 -122 -74 -38
-22 -104 -60 -145 -83 -41 -24 -97 -56 -125 -70 -27 -14 -81 -44 -120 -67 -38
-22 -114 -63 -168 -92 -53 -28 -118 -65 -144 -81 -26 -17 -50 -30 -54 -30 -4
0 -71 -34 -150 -76 -79 -42 -200 -105 -269 -140 -231 -119 -274 -170 -293
-349 -12 -117 -4 -155 34 -155 19 0 147 69 344 184 39 22 84 49 100 58 17 9
91 51 165 93 74 42 155 88 180 102 25 14 81 46 125 71 44 25 100 56 125 69 25
13 77 42 115 65 39 22 153 85 255 140 102 54 194 109 206 122 11 13 35 70 53
127 17 57 39 127 48 155 9 28 13 59 10 68 -7 18 -57 21 -95 5z"/>
<path d="M11715 23396 c-63 -24 -364 -174 -425 -210 -19 -12 -60 -33 -90 -46
-30 -13 -140 -70 -245 -125 -104 -55 -224 -116 -265 -135 -41 -19 -86 -42
-100 -51 -14 -9 -113 -60 -220 -114 -107 -53 -208 -106 -224 -118 -46 -33 -63
-87 -71 -227 -8 -147 0 -180 43 -180 15 0 36 6 47 14 48 33 317 175 737 389
923 472 838 425 865 478 13 24 34 102 49 174 36 183 25 200 -101 151z"/>
<path d="M11739 22876 c-20 -7 -49 -22 -65 -32 -16 -11 -60 -35 -99 -54 -117
-56 -414 -204 -525 -262 -58 -31 -177 -92 -265 -138 -88 -45 -167 -88 -175
-95 -8 -6 -35 -23 -60 -37 -203 -112 -307 -173 -317 -188 -7 -10 -24 -21 -37
-24 -35 -9 -109 -60 -140 -97 -27 -32 -30 -43 -46 -191 -15 -146 -14 -185 9
-198 28 -14 49 -4 181 86 187 128 447 283 622 371 26 13 49 27 52 32 3 5 81
46 173 92 93 46 204 104 248 129 114 65 317 167 381 191 83 31 101 65 131 249
14 83 22 157 19 165 -7 18 -39 19 -87 1z"/>
<path d="M19247 21446 c-16 -17 -67 -265 -67 -330 0 -62 4 -69 68 -118 161
-121 319 -274 355 -344 9 -17 23 -37 32 -44 27 -22 82 -141 124 -267 85 -253
91 -397 27 -636 -35 -130 -36 -140 -21 -163 19 -30 27 -30 59 -1 33 30 100
257 142 482 24 125 27 453 5 555 -41 196 -132 393 -242 525 -45 54 -218 224
-259 255 -133 100 -188 121 -223 86z"/>
<path d="M24638 18659 c-15 -6 -58 -27 -96 -47 -103 -55 -309 -168 -372 -203
-30 -17 -83 -47 -118 -66 -34 -18 -83 -47 -109 -63 -26 -17 -51 -30 -55 -30
-5 0 -104 -55 -221 -122 -212 -121 -296 -169 -457 -258 -47 -25 -132 -74 -190
-107 -58 -33 -109 -62 -115 -64 -5 -2 -65 -37 -131 -76 -67 -40 -125 -73 -128
-73 -4 0 -22 -11 -39 -24 -18 -13 -59 -39 -92 -57 -33 -18 -97 -57 -142 -86
-46 -29 -85 -53 -88 -53 -5 0 -38 -20 -145 -89 -30 -20 -75 -47 -100 -61 -156
-86 -254 -154 -289 -199 -40 -50 -57 -119 -67 -267 -6 -95 -5 -103 14 -122 26
-26 39 -22 107 27 28 20 93 63 145 96 52 32 154 96 225 142 216 140 327 208
470 290 44 25 117 69 162 97 45 28 101 62 124 76 23 14 63 39 89 56 25 18 71
44 101 59 30 15 135 76 234 135 99 60 198 116 220 126 22 10 51 26 65 35 30
20 88 53 155 89 28 15 82 45 120 67 39 22 133 73 209 114 77 41 187 100 245
132 58 31 129 68 156 81 54 26 95 64 117 111 8 17 34 89 58 162 38 113 42 135
32 157 -13 28 -44 33 -94 15z"/>
<path d="M14160 17127 c-76 -47 -167 -118 -206 -159 -41 -42 -144 -202 -144
-223 0 -5 -13 -41 -28 -80 -37 -90 -73 -225 -74 -274 -1 -67 40 -104 163 -145
39 -13 76 -29 82 -35 9 -9 -11 -34 -81 -102 -70 -67 -101 -106 -123 -152 -41
-86 -38 -127 9 -127 27 0 58 14 438 201 133 66 244 119 248 119 5 0 223 104
385 183 32 16 82 85 126 177 20 41 44 89 53 107 13 26 14 37 4 57 -14 31 -44
34 -129 10 -32 -9 -85 -22 -118 -29 -33 -8 -74 -19 -90 -25 -61 -24 -229 -50
-318 -50 -100 0 -214 27 -319 74 -74 33 -75 51 -5 94 42 26 64 32 107 32 69 0
132 -30 161 -76 48 -78 94 -59 162 68 58 107 70 150 56 203 -15 54 -51 90
-134 132 -91 46 -172 54 -225 20z"/>
<path d="M24767 16061 c-3 -13 -1 -78 5 -145 6 -69 7 -193 3 -291 -8 -219 -8
-218 0 -633 5 -222 4 -357 -2 -363 -13 -13 -1105 -20 -1334 -9 -101 5 -193 5
-216 0 -21 -5 -72 -10 -113 -11 -41 -1 -101 -6 -132 -11 -47 -7 -67 -5 -117
12 -55 18 -72 19 -203 11 -223 -14 -852 -6 -913 12 -49 14 -194 10 -297 -9
-45 -7 -59 13 -35 50 15 22 27 28 107 54 41 14 117 2 223 -35 55 -19 89 -23
178 -23 124 0 179 15 179 49 0 12 -9 30 -20 41 -27 27 -109 27 -169 0 -54 -25
-68 -25 -109 0 -54 33 -111 36 -186 10 -61 -22 -67 -22 -118 -8 -55 15 -106 9
-185 -23 -27 -11 -37 -10 -75 5 -35 15 -86 20 -273 27 -126 4 -284 11 -350 15
-107 6 -136 4 -265 -21 -80 -15 -165 -33 -189 -41 -62 -20 -91 -18 -119 9 -22
20 -32 22 -148 21 -86 0 -128 -4 -137 -13 -22 -23 19 -41 92 -39 104 1 202
-14 215 -34 5 -9 7 -21 2 -25 -4 -4 -69 -7 -144 -6 -75 1 -159 2 -187 3 -140
2 -191 -2 -207 -17 -13 -12 -43 -15 -150 -14 -184 1 -347 12 -354 23 -3 5 11
25 33 44 37 33 37 34 19 49 -26 20 -54 19 -91 -4 -22 -13 -61 -20 -130 -25
-86 -6 -108 -4 -157 13 -96 33 -139 36 -186 12 -25 -13 -60 -21 -89 -21 -27 0
-64 -4 -83 -10 -26 -7 -55 -6 -115 7 -44 9 -107 17 -140 16 -33 0 -154 -1
-270 -3 -119 -1 -239 3 -277 9 -49 8 -80 8 -115 0 -29 -6 -171 -12 -353 -12
l-305 -2 -40 -27 c-46 -32 -93 -36 -132 -10 -49 31 -348 45 -400 19 -26 -14
-51 -15 -169 -7 -77 4 -155 13 -174 19 -48 15 -94 14 -137 -4 -33 -14 -45 -14
-123 0 -47 9 -90 15 -95 14 -6 -1 -67 1 -136 5 -96 6 -136 5 -165 -5 -25 -8
-93 -13 -184 -14 -80 0 -180 -5 -222 -9 -64 -7 -86 -6 -122 8 -40 15 -64 16
-238 6 -106 -5 -238 -14 -293 -20 -81 -7 -104 -6 -122 5 -29 19 -256 18 -417
-1 -76 -10 -194 -14 -330 -13 -200 2 -214 4 -276 28 -72 28 -148 32 -298 17
-58 -6 -103 -5 -150 4 -58 10 -80 10 -162 -5 -146 -26 -199 -28 -267 -11 -79
21 -193 21 -241 0 -27 -11 -78 -16 -196 -18 -207 -3 -198 -10 -202 152 -2 88
-8 131 -20 157 -19 40 -39 45 -50 13 -11 -39 -23 -49 -44 -36 -27 17 -46 4
-64 -49 -29 -80 -33 -106 -23 -148 5 -22 6 -83 2 -135 -10 -149 -9 -160 7
-177 18 -17 61 -19 351 -14 160 3 170 2 188 -18 25 -27 62 -27 106 0 31 20 45
21 146 17 62 -2 128 -1 147 2 20 3 55 -1 80 -9 40 -13 417 -21 920 -20 19 0
59 7 88 15 39 12 113 17 280 19 l227 3 33 -35 c31 -35 33 -36 88 -29 31 3 66
12 78 18 11 7 75 16 141 21 200 15 211 15 237 -11 21 -19 35 -22 106 -22 55 0
93 5 116 17 33 15 38 15 93 -2 84 -27 206 -31 254 -10 34 16 52 16 191 6 84
-7 169 -16 188 -22 19 -5 56 -9 82 -9 40 0 50 4 64 25 19 29 34 33 27 6 -10
-39 96 -42 168 -4 41 21 55 24 68 15 33 -24 67 -33 106 -29 22 2 109 0 193 -4
154 -9 192 -4 192 24 0 31 23 37 58 15 26 -16 53 -22 106 -23 48 -1 82 -8 106
-20 30 -16 57 -19 195 -18 312 1 621 11 727 23 82 10 121 10 165 1 66 -12 354
-24 377 -15 25 10 19 22 -15 29 -28 6 -30 9 -16 22 10 11 33 15 68 14 57 -1
65 -5 71 -36 7 -40 200 -57 285 -24 l28 10 -28 21 c-15 11 -25 24 -21 29 8 14
91 11 106 -4 18 -17 108 -37 171 -37 29 0 90 -8 136 -17 80 -16 88 -16 154 1
65 17 69 17 81 1 14 -20 20 -20 191 -6 66 5 161 13 210 16 50 4 110 14 134 22
46 14 57 11 63 -21 6 -35 71 -49 165 -36 64 9 98 9 150 0 75 -13 168 -2 209
25 19 12 43 13 140 6 115 -9 158 -4 166 19 5 15 71 30 133 29 l50 0 -37 -16
c-42 -17 -46 -24 -21 -44 13 -12 150 -13 822 -11 856 3 903 6 860 49 -21 21 2
36 49 30 34 -4 52 -12 67 -31 17 -22 30 -27 61 -26 82 3 132 1 219 -5 123 -9
242 6 262 34 21 31 80 29 93 -3 11 -30 28 -33 190 -29 114 3 137 6 148 21 11
15 9 20 -13 40 l-26 22 24 9 c15 6 95 5 208 -1 210 -11 534 -5 596 13 27 7 52
8 70 2 27 -8 602 2 670 13 61 9 60 3 47 479 -2 61 -5 277 -8 482 -7 430 -12
489 -53 538 -15 18 -35 44 -44 56 l-16 23 -6 -23z m-3442 -1401 c-3 -5 -52 -8
-109 -7 -111 2 -137 16 -33 18 34 1 73 4 87 8 27 9 64 -4 55 -19z m-530 -16
c32 -12 13 -20 -42 -18 -32 2 -74 -1 -93 -6 -36 -10 -210 -2 -210 10 0 3 19
11 43 17 42 11 270 9 302 -3z m-5162 -49 c62 -26 52 -34 -43 -34 -94 0 -109 8
-62 33 35 19 61 20 105 1z m-754 -14 c20 -13 -15 -22 -87 -23 -61 -1 -87 7
-77 23 8 11 145 12 164 0z m365 3 c32 -12 14 -24 -36 -24 -68 0 -105 9 -86 21
15 10 99 12 122 3z m691 -24 c-3 -5 -17 -10 -30 -10 -13 0 -27 5 -30 10 -4 6
8 10 30 10 22 0 34 -4 30 -10z m1218 -115 c1 -5 -17 -11 -40 -13 -24 -2 -43 1
-43 7 0 20 79 26 83 6z m-358 -5 c-3 -5 -36 -10 -73 -10 -47 0 -63 3 -52 10
20 13 133 13 125 0z m4145 1 c0 -15 -16 -22 -34 -15 -25 9 -19 24 9 24 14 0
25 -4 25 -9z m-4017 -8 c-7 -2 -19 -2 -25 0 -7 3 -2 5 12 5 14 0 19 -2 13 -5z"/>
<path d="M11295 15960 c-4 -7 -9 -35 -10 -63 -2 -29 -6 -68 -10 -88 -12 -60
24 -102 55 -64 10 12 10 36 2 112 -11 95 -22 127 -37 103z"/>
<path d="M11268 15633 c-28 -31 -31 -93 -8 -138 27 -52 25 -91 -6 -159 -25
-56 -25 -56 -10 -132 9 -42 16 -91 16 -108 0 -41 20 -69 46 -64 15 3 19 11 17
43 -5 87 -1 218 7 241 5 13 11 85 12 160 3 132 2 136 -21 155 -29 23 -34 24
-53 2z"/>
<path d="M11406 15177 c-5 -15 -6 -31 -2 -34 11 -11 18 5 14 34 l-4 28 -8 -28z"/>
<path d="M19120 14745 c-9 -11 -10 -19 -3 -26 12 -12 113 -29 178 -29 31 0 62
-7 80 -18 17 -10 40 -21 53 -24 28 -8 81 13 106 41 22 25 42 26 82 7 35 -17
76 -11 101 16 13 15 14 21 4 27 -17 11 -228 21 -427 21 -133 0 -164 -3 -174
-15z"/>
<path d="M24094 14429 c-9 -15 12 -33 30 -26 9 4 16 13 16 22 0 17 -35 21 -46
4z"/>
</g>
</svg>
