<?xml version="1.0" standalone="no"?>
<!DOCTYPE svg PUBLIC "-//W3C//DTD SVG 20010904//EN"
 "http://www.w3.org/TR/2001/REC-SVG-20010904/DTD/svg10.dtd">
<svg version="1.0" xmlns="http://www.w3.org/2000/svg"
 width="2482.000000pt" height="2482.000000pt" viewBox="0 0 2482.000000 2482.000000"
 preserveAspectRatio="xMidYMid meet">

<g transform="translate(0.000000,2482.000000) scale(0.100000,-0.100000)"
fill="#000000" stroke="none">
<path d="M4596 22447 c-93 -114 -153 -318 -192 -658 -12 -107 -18 -273 -21
-646 -3 -277 -3 -510 1 -518 4 -12 10 -10 31 11 51 51 83 8 47 -63 -27 -52
-61 -81 -172 -148 -52 -31 -120 -81 -152 -110 -72 -67 -128 -82 -258 -69 -88
9 -2354 13 -2425 4 -31 -4 -40 -2 -40 10 0 13 146 16 1235 20 936 5 1246 9
1279 18 55 16 101 40 101 52 0 7 -494 9 -1402 8 l-1403 -3 -3 -167 -2 -168
1418 0 1419 0 7 -61 c3 -34 6 -106 6 -160 l0 -99 160 0 160 0 0 -327 c0 -425
17 -668 65 -926 36 -194 101 -384 173 -507 l38 -65 374 0 375 0 46 27 c118 69
176 183 216 425 16 97 18 160 13 618 -2 281 -4 580 -5 665 l0 155 73 3 72 3 0
124 0 125 618 0 619 0 7 -146 c7 -173 34 -313 82 -438 38 -100 74 -164 206
-368 48 -75 92 -147 97 -160 23 -60 111 -236 178 -357 140 -254 291 -475 479
-706 88 -109 379 -409 524 -540 220 -199 340 -373 531 -765 131 -270 271 -472
459 -661 134 -136 229 -212 372 -300 57 -36 132 -93 169 -129 105 -105 132
-183 149 -433 25 -372 80 -669 185 -996 43 -132 47 -154 56 -299 11 -183 30
-310 65 -441 26 -100 84 -256 114 -306 14 -24 19 -60 23 -185 5 -172 24 -263
79 -382 l31 -69 -13 -159 c-7 -88 -10 -163 -6 -167 3 -4 21 8 39 25 38 37 53
40 62 12 9 -30 -30 -104 -72 -136 -43 -33 -111 -42 -167 -21 -77 27 -72 66 9
67 50 0 72 12 52 28 -21 18 -236 117 -382 177 -432 177 -881 234 -1148 144
-117 -39 -194 -86 -286 -173 -157 -151 -236 -308 -266 -526 -6 -45 7 -450 25
-761 21 -362 95 -630 365 -1329 181 -469 241 -640 255 -724 20 -123 -35 -325
-148 -549 -80 -158 -139 -243 -243 -352 -84 -88 -110 -144 -129 -272 -22 -159
39 -260 186 -309 49 -16 88 -19 224 -19 179 0 265 14 382 62 79 32 110 53 175
119 55 57 84 69 198 83 37 4 73 14 82 23 21 22 28 98 13 155 -8 32 -14 139
-15 313 -3 283 -11 348 -60 480 -115 310 -132 611 -59 1010 14 74 40 249 59
389 19 139 36 256 38 258 3 2 42 -25 88 -59 151 -114 341 -198 539 -238 214
-44 528 -45 795 -3 158 24 1571 32 1710 9 165 -27 298 -38 485 -38 213 1 352
17 517 63 141 39 363 146 452 217 67 54 81 61 81 39 0 -33 71 -531 85 -597 81
-379 69 -694 -39 -1005 -61 -179 -69 -232 -71 -525 -2 -158 -7 -279 -14 -300
-16 -50 -14 -132 4 -157 18 -25 57 -39 139 -48 80 -9 95 -18 155 -86 60 -68
133 -109 250 -141 107 -30 396 -32 486 -5 127 40 190 88 215 163 32 95 -22
332 -86 380 -41 31 -138 149 -194 234 -101 156 -208 419 -232 573 -9 60 -9 91
1 144 12 67 137 422 233 663 116 290 223 592 284 798 69 233 92 371 104 622
32 678 31 754 -14 891 -83 254 -310 474 -561 544 -81 23 -339 31 -459 15 -307
-40 -597 -135 -953 -311 -67 -34 -126 -58 -131 -55 -5 3 -15 88 -21 188 l-13
183 31 68 c49 107 71 213 78 382 6 147 7 152 43 230 94 200 160 510 160 755 0
73 6 102 40 204 111 327 176 664 200 1042 20 318 60 389 313 558 293 196 489
392 673 673 47 71 154 259 154 270 0 16 172 343 217 412 106 163 174 238 472
520 245 232 451 475 643 757 111 164 203 324 323 564 59 118 144 271 189 340
108 166 138 218 179 321 52 128 69 221 74 412 l6 167 617 0 c554 0 618 -2 624
-16 3 -9 6 -65 6 -125 l0 -109 70 0 71 0 -3 -672 c-3 -697 -1 -743 39 -908 33
-136 94 -239 170 -289 l48 -32 380 2 381 3 54 95 c163 286 230 700 230 1429
l0 302 78 2 c42 2 113 3 157 3 l80 0 3 158 3 157 1425 0 1425 0 -3 168 -3 167
-1422 3 -1423 2 0 44 c0 23 -3 78 -7 120 l-6 78 -45 -7 c-25 -4 -92 -4 -149 0
l-103 7 0 393 c0 651 -29 979 -107 1220 -34 105 -75 186 -119 235 l-36 40
-337 0 -336 0 -57 -45 c-158 -124 -269 -352 -317 -650 -33 -210 -41 -363 -41
-801 l0 -414 -50 0 -50 0 0 -105 c0 -58 4 -105 8 -105 16 0 40 35 77 110 66
135 70 143 87 154 53 33 35 -93 -33 -227 -59 -115 -123 -167 -206 -167 -86 0
-94 19 -24 55 27 13 52 29 56 35 4 7 -210 10 -659 10 l-664 0 -21 34 c-28 45
-75 79 -163 121 -233 110 -481 95 -623 -36 -45 -42 -49 -43 -115 -44 -74 0
-98 -13 -126 -67 l-15 -28 -4129 0 c-3987 0 -4129 1 -4134 18 -4 10 -20 32
-37 48 -27 26 -37 29 -97 29 -64 1 -69 3 -107 39 -144 138 -417 151 -654 32
-62 -32 -151 -111 -151 -136 0 -7 -223 -10 -680 -10 l-680 0 0 120 0 120 -49
0 -49 0 -5 493 c-4 384 -8 517 -21 607 -58 399 -157 620 -349 771 l-49 39
-338 0 -339 0 -35 -43z m604 -45 c43 -21 53 -57 18 -65 -13 -3 -108 -9 -213
-12 -216 -7 -266 -18 -317 -70 -18 -19 -51 -71 -73 -116 -54 -111 -70 -115
-62 -18 11 147 73 248 174 285 27 9 96 13 238 14 171 0 205 -3 235 -18z
m14782 -10 l23 -23 -24 -20 c-13 -10 -37 -19 -55 -20 -17 0 -110 -4 -206 -8
-209 -9 -253 -23 -326 -105 -41 -45 -127 -204 -178 -329 -37 -90 -49 20 -16
140 46 166 140 306 240 358 55 28 105 34 312 32 202 -2 208 -3 230 -25z
m-12219 -1926 c40 -16 58 -43 37 -56 -6 -4 -46 -11 -89 -14 -138 -13 -210 -34
-357 -107 -155 -78 -222 -93 -299 -67 -64 21 -51 39 50 68 50 14 99 31 110 37
11 7 54 32 95 56 78 46 167 83 235 97 56 12 174 5 218 -14z m9425 3 c44 -13
86 -45 78 -58 -3 -5 -56 -11 -118 -15 -131 -8 -230 -37 -398 -116 -58 -27
-132 -56 -165 -65 -54 -14 -476 -15 -4092 -15 -2412 0 -4051 4 -4080 9 -26 6
-59 14 -73 20 -17 6 1280 10 3952 10 2765 1 4000 4 4053 12 82 11 209 52 313
100 138 65 249 111 297 125 57 16 168 13 233 -7z m6047 -199 c4 -7 -382 -10
-1149 -10 -764 0 -1156 3 -1156 10 0 7 390 10 1149 10 756 0 1152 -3 1156 -10z
m-6630 -349 c21 -63 67 -108 165 -161 44 -24 84 -48 89 -54 22 -27 -116 -342
-219 -501 -130 -198 -277 -353 -595 -623 -510 -433 -538 -462 -791 -812 -404
-560 -660 -842 -919 -1015 -60 -40 -177 -110 -260 -155 -347 -191 -487 -288
-675 -469 l-115 -111 -45 24 c-25 13 -67 27 -93 31 -44 7 -48 10 -42 29 4 11
9 84 12 161 5 161 4 157 115 382 78 157 81 166 82 235 1 61 -3 81 -26 125 -21
40 -28 67 -28 110 0 227 -57 523 -135 698 -56 127 -167 264 -273 337 -217 149
-589 178 -845 64 -316 -139 -488 -484 -514 -1030 -6 -117 -9 -136 -35 -184
-53 -101 -38 -174 85 -417 l82 -160 5 -151 c6 -168 15 -199 51 -163 24 24 43
20 47 -10 6 -37 -5 -64 -45 -110 -62 -73 -144 -98 -219 -66 -28 11 -35 19 -32
37 2 14 13 25 28 30 14 4 51 15 82 24 31 9 65 25 74 35 16 18 16 19 -23 19
-24 0 -60 -10 -88 -26 l-48 -25 -96 94 c-196 192 -369 313 -701 491 -242 129
-366 220 -545 400 -205 205 -298 320 -685 847 -189 257 -333 399 -810 800
-377 316 -569 573 -711 953 l-33 89 25 20 c13 11 47 32 74 48 80 45 131 95
161 154 l26 55 4213 0 4213 0 17 -49z m335 -423 c0 -89 -149 -367 -299 -556
-111 -141 -245 -272 -498 -489 -477 -407 -517 -449 -768 -788 -324 -439 -436
-576 -630 -771 -208 -209 -286 -266 -615 -454 -312 -178 -445 -268 -571 -385
-58 -53 -169 -124 -213 -136 -78 -21 -165 9 -140 47 5 9 44 29 87 44 85 30
125 55 219 137 153 134 323 247 644 426 218 122 341 213 518 386 152 148 365
403 551 660 305 420 372 495 705 781 425 366 506 441 620 580 106 129 193 259
259 391 68 133 92 169 114 169 13 0 17 -9 17 -42z m-4394 -1312 c28 -9 61 -25
75 -36 37 -33 10 -40 -116 -34 -130 7 -276 -12 -386 -51 -201 -70 -295 -178
-438 -503 -12 -28 -27 -50 -32 -46 -14 8 -11 93 6 157 73 281 254 459 530 523
78 18 290 12 361 -10z m-2731 -5936 c61 -12 142 -31 180 -42 83 -24 205 -77
205 -89 0 -12 13 -13 -193 23 -167 30 -199 33 -387 33 -195 -1 -209 -2 -295
-29 -49 -15 -115 -41 -145 -58 -85 -49 -207 -178 -260 -276 -72 -133 -94 -155
-106 -108 -13 55 47 210 113 291 125 153 262 237 438 271 97 19 311 11 450
-16z m5510 15 c83 -16 140 -42 140 -66 0 -12 -37 -15 -215 -20 -283 -9 -423
-33 -689 -121 -69 -22 -172 -61 -230 -85 -58 -25 -131 -56 -161 -69 -78 -33
-153 -41 -185 -20 -45 30 -23 65 55 87 25 7 122 45 217 85 432 183 815 258
1068 209z m-398 -3584 c-6 -76 -59 -245 -84 -274 -15 -16 -18 -16 -26 -1 -17
30 18 179 69 291 34 75 48 69 41 -16z m-5487 -160 c0 -92 -101 -350 -195 -496
-32 -51 -160 -227 -241 -333 -36 -47 -69 -42 -68 10 2 51 30 100 138 243 128
167 208 309 275 480 34 89 66 145 81 145 5 0 10 -22 10 -49z"/>
<path d="M4077 20593 c-4 -3 -7 -54 -7 -111 l0 -105 69 66 c40 39 93 78 127
95 90 42 93 45 64 53 -33 9 -245 11 -253 2z"/>
<path d="M2500 7970 c-387 -32 -748 -142 -1002 -305 -97 -63 -207 -176 -244
-251 l-29 -59 0 -1155 0 -1155 27 -58 c35 -75 131 -175 233 -242 231 -153 534
-252 914 -300 194 -25 714 -16 881 14 419 77 730 212 920 400 128 127 142 191
138 641 l-3 295 -634 3 c-501 2 -636 0 -643 -10 -4 -7 -8 -142 -8 -299 0 -331
3 -321 -98 -360 -47 -19 -77 -23 -167 -23 -94 0 -118 3 -163 23 -102 45 -92
-66 -92 1073 l0 999 26 24 c57 53 111 70 224 70 160 0 245 -38 266 -118 5 -17
9 -153 9 -302 l0 -270 640 0 640 0 3 280 c5 446 -9 516 -124 644 -83 92 -172
155 -319 226 -208 102 -419 163 -685 200 -135 19 -555 28 -710 15z m682 -91
c220 -31 422 -91 460 -136 14 -18 20 -18 -222 22 -85 14 -218 30 -295 36 -176
14 -558 6 -720 -16 -304 -41 -590 -130 -775 -242 -94 -57 -140 -98 -209 -185
-59 -77 -84 -85 -89 -29 -11 115 171 286 419 393 264 113 515 166 844 177 272
9 418 4 587 -20z m912 -2159 c32 -12 34 -40 5 -66 -20 -18 -46 -19 -413 -24
-380 -5 -392 -6 -440 -28 -27 -12 -57 -20 -67 -17 -27 9 -25 65 2 94 46 49 57
50 486 51 238 0 412 -4 427 -10z m-938 -544 c-8 -43 -60 -120 -107 -158 -19
-15 -62 -38 -94 -49 -118 -43 -285 -21 -293 37 -4 26 19 34 98 34 114 0 221
42 285 110 22 23 53 56 69 73 29 31 30 31 39 10 5 -12 7 -37 3 -57z"/>
<path d="M16787 7513 c-4 -3 -7 -687 -7 -1520 l0 -1513 645 0 645 0 2 618 3
617 459 3 c333 1 462 5 467 14 10 16 6 530 -4 546 -6 9 -108 12 -452 12 -244
0 -450 3 -459 6 -14 5 -16 44 -16 335 0 255 3 331 13 334 6 3 287 6 622 7
l610 3 0 270 0 270 -1261 3 c-693 1 -1264 -1 -1267 -5z m2283 -76 c14 -7 26
-23 28 -35 8 -53 19 -52 -1064 -52 l-996 0 -60 -27 c-67 -30 -91 -25 -96 19
-4 34 33 75 83 93 56 20 2066 22 2105 2z m-300 -1237 c26 -26 14 -53 -31 -69
-41 -14 -407 -15 -480 -1 -30 6 -63 20 -77 32 l-23 23 21 17 c20 16 49 18 296
18 262 0 275 -1 294 -20z"/>
<path d="M19600 7251 l0 -269 38 -3 c20 -2 299 -3 620 -1 l582 3 -2 267 -3
267 -617 3 -618 2 0 -269z m990 186 c14 -7 26 -23 28 -35 3 -18 -4 -26 -32
-37 -29 -12 -98 -15 -376 -15 -340 0 -340 0 -402 -25 -72 -29 -81 -30 -98 -10
-28 33 13 98 75 120 55 19 767 21 805 2z"/>
<path d="M21657 7103 c-4 -3 -7 -87 -7 -185 l0 -179 33 25 c40 31 54 32 62 7
9 -28 -20 -90 -63 -134 -46 -47 -119 -75 -224 -83 -46 -4 -100 -13 -122 -20
-108 -38 -156 17 -71 82 29 22 50 27 139 35 102 9 216 40 216 60 0 5 -103 9
-250 9 l-250 0 2 -227 3 -228 258 -3 c141 -1 258 -3 259 -5 1 -1 4 -290 7
-642 l6 -640 34 -65 c101 -194 377 -341 739 -395 172 -26 359 -35 705 -35
l337 0 0 260 0 260 -194 0 c-216 0 -283 9 -338 45 l-38 25 0 595 0 595 316 0
315 0 -3 228 -3 227 -312 3 -313 2 0 169 c0 94 -4 181 -10 195 l-10 26 -608 0
c-335 0 -612 -3 -615 -7z m1009 -84 c21 -22 11 -53 -22 -67 -17 -8 -133 -12
-378 -12 l-354 0 -68 -35 c-90 -45 -104 -45 -104 1 0 60 44 107 115 125 17 4
202 7 412 6 339 -2 384 -4 399 -18z m630 -390 c39 -39 -14 -79 -105 -79 -117
0 -206 31 -199 69 5 24 43 30 170 28 94 -2 121 -5 134 -18z m-76 -1712 c31
-16 36 -39 14 -62 -35 -34 -194 -3 -211 42 -3 8 0 19 8 24 21 13 161 10 189
-4z"/>
<path d="M4694 7057 c-3 -8 -6 -588 -7 -1290 l-2 -1277 618 0 c339 0 618 1
619 3 1 1 4 360 7 797 7 894 0 825 84 911 142 145 408 230 765 246 l142 6 -2
306 -3 306 -135 -3 c-330 -8 -572 -70 -758 -192 -50 -33 -93 -60 -96 -60 -3 0
-6 6 -6 13 1 19 -62 220 -73 235 -14 19 -1145 18 -1153 -1z m951 -71 c27 -11
35 -21 35 -40 0 -42 -35 -46 -396 -46 l-333 0 -58 -25 c-73 -33 -97 -30 -101
11 -4 41 36 89 86 102 21 6 190 10 385 11 283 1 354 -2 382 -13z m1053 -18 c7
-7 12 -19 12 -28 0 -34 -37 -50 -151 -70 -146 -25 -231 -48 -349 -95 -142 -57
-250 -61 -250 -10 0 28 28 50 78 60 19 4 80 26 136 50 102 42 219 76 326 94
83 13 184 13 198 -1z"/>
<path d="M8480 7063 c-234 -12 -445 -43 -645 -95 -145 -37 -221 -65 -340 -124
-162 -80 -251 -162 -309 -284 l-31 -65 -3 -703 c-2 -453 1 -723 8 -759 37
-202 207 -346 543 -458 116 -39 341 -86 527 -109 421 -54 976 -11 1340 105
267 85 478 227 547 367 l28 57 0 760 0 760 -26 55 c-91 192 -373 345 -791 430
-254 52 -589 77 -848 63z m618 -102 c234 -36 482 -108 482 -140 0 -16 -28 -14
-220 18 -256 43 -407 55 -665 55 -410 -1 -742 -54 -1026 -164 -157 -60 -244
-121 -317 -220 -51 -69 -64 -81 -79 -69 -35 30 5 145 77 217 162 163 474 267
980 326 19 2 168 3 330 1 243 -2 320 -6 438 -24z m-352 -445 c59 -27 116 -90
132 -145 9 -27 12 -209 12 -627 l0 -589 -24 -50 c-40 -88 -119 -138 -216 -138
-94 0 -168 45 -213 128 -22 40 -22 47 -25 642 -3 599 -2 603 19 653 24 57 95
125 143 139 56 17 119 12 172 -13z m249 -1376 c16 -49 -26 -149 -90 -214 -99
-103 -266 -136 -329 -67 -15 17 -15 20 -1 34 8 9 37 19 63 22 117 16 194 59
256 142 83 114 90 119 101 83z"/>
<path d="M11680 7060 c-631 -30 -1024 -190 -1154 -470 -38 -82 -49 -151 -43
-265 10 -168 51 -262 166 -375 82 -82 162 -133 311 -200 92 -41 164 -65 620
-210 381 -121 494 -180 546 -282 22 -44 26 -61 22 -119 -6 -117 -53 -147 -249
-156 -139 -7 -210 10 -267 62 l-37 33 -5 129 -5 128 -559 3 c-441 2 -561 0
-568 -10 -11 -19 -10 -193 3 -285 24 -180 122 -299 334 -405 220 -111 473
-166 879 -190 301 -18 672 9 919 67 100 23 266 79 328 111 160 81 314 216 365
321 26 51 29 71 32 170 2 61 -2 137 -8 167 -41 198 -217 375 -525 529 -141 70
-243 107 -550 202 -384 117 -406 125 -469 158 -36 19 -71 47 -88 72 -27 36
-29 46 -26 102 6 104 51 142 185 163 50 8 98 8 151 2 159 -19 191 -58 192
-224 0 -71 4 -99 13 -100 6 -1 258 -3 559 -3 l546 0 7 110 c15 248 -54 389
-254 519 -150 97 -266 139 -521 190 -268 54 -530 71 -850 56z m655 -99 c72
-12 168 -31 215 -42 98 -25 210 -72 210 -90 0 -14 -29 -11 -260 24 -261 40
-458 51 -720 38 -424 -20 -696 -75 -892 -178 -85 -45 -135 -88 -201 -178 -29
-38 -60 -71 -69 -73 -27 -5 -33 42 -13 96 80 211 356 352 795 406 188 24 193
24 510 21 243 -2 318 -7 425 -24z m-260 -1000 c66 -22 155 -49 197 -60 82 -23
178 -62 178 -73 0 -8 -95 17 -310 84 -155 48 -220 72 -220 83 0 12 43 2 155
-34z m-714 -701 c10 -6 19 -19 19 -29 0 -43 -17 -46 -354 -51 -275 -5 -327 -8
-360 -23 -78 -34 -122 -12 -94 47 31 63 44 66 426 66 218 0 350 -4 363 -10z
m879 -218 c0 -83 -98 -175 -225 -208 -103 -28 -250 -7 -279 38 -18 29 3 37
124 47 160 13 203 31 307 126 51 47 73 46 73 -3z"/>
<path d="M14775 7060 c-245 -12 -549 -69 -731 -140 -219 -84 -374 -234 -419
-405 -19 -74 -19 -219 -1 -306 45 -209 209 -358 546 -492 63 -25 259 -91 435
-146 420 -131 507 -167 597 -249 60 -54 82 -104 75 -172 -7 -81 -29 -118 -85
-143 -41 -18 -66 -21 -187 -22 -130 0 -144 2 -189 25 -80 40 -90 61 -96 203
l-5 122 -565 0 -565 0 1 -155 c1 -183 21 -267 80 -347 170 -225 546 -351 1151
-385 583 -32 1102 69 1378 267 183 131 255 253 255 428 0 313 -209 538 -683
736 -114 47 -231 86 -578 190 -141 43 -277 90 -302 104 -73 43 -101 87 -105
167 -4 63 -2 69 27 103 58 66 190 90 341 63 74 -13 89 -19 116 -49 38 -41 49
-102 39 -201 -7 -64 -7 -66 16 -68 13 -1 269 -3 567 -3 l544 0 -4 160 c-5 179
-19 237 -80 323 -70 97 -284 226 -473 285 -88 27 -295 70 -420 87 -74 10 -454
31 -500 28 -11 -1 -92 -4 -180 -8z m660 -94 c198 -30 350 -71 412 -111 47 -31
6 -32 -188 -4 -614 90 -1270 39 -1614 -125 -105 -50 -164 -100 -235 -197 -61
-84 -85 -89 -84 -19 0 25 9 63 19 85 26 55 138 164 208 203 132 74 348 138
567 167 63 8 129 17 145 19 75 11 674 -3 770 -18z m-252 -996 c51 -16 130 -41
177 -55 94 -28 174 -63 148 -64 -42 -2 -400 103 -443 130 l-30 19 28 0 c16 0
70 -13 120 -30z m-689 -719 c19 -21 13 -47 -15 -61 -10 -6 -138 -10 -306 -10
-234 0 -299 -3 -343 -16 -30 -9 -72 -18 -92 -21 -34 -5 -38 -2 -44 21 -4 17 0
35 11 52 33 51 52 53 426 54 324 0 347 -1 363 -19z m876 -203 c0 -79 -96 -174
-212 -209 -121 -37 -293 -10 -293 46 0 18 10 21 112 31 61 6 133 17 159 24 50
14 121 63 162 111 14 17 34 29 48 29 20 0 24 -5 24 -32z"/>
<path d="M19600 5600 l0 -1120 620 0 620 0 0 1120 0 1120 -620 0 -620 0 0
-1120z m998 1034 c12 -8 22 -24 22 -34 0 -41 -27 -45 -415 -50 -366 -5 -370
-5 -416 -29 -72 -37 -107 -11 -75 55 11 24 30 41 59 54 39 18 69 20 422 20
329 0 384 -2 403 -16z"/>
</g>
</svg>
